<svg width="12" height="12" viewBox="0 0 12 12" fill="none" xmlns="http://www.w3.org/2000/svg">
<path d="M8.625 8.625H3.27188L1.96406 1.43438C1.94876 1.34826 1.90384 1.27021 1.83707 1.21371C1.77031 1.15722 1.68589 1.12584 1.59844 1.125H0.75" stroke="white" stroke-linecap="round" stroke-linejoin="round"/>
<path d="M3.75 10.5C4.26777 10.5 4.6875 10.0803 4.6875 9.5625C4.6875 9.04473 4.26777 8.625 3.75 8.625C3.23223 8.625 2.8125 9.04473 2.8125 9.5625C2.8125 10.0803 3.23223 10.5 3.75 10.5Z" stroke="white" stroke-linecap="round" stroke-linejoin="round"/>
<path d="M8.625 10.5C9.14277 10.5 9.5625 10.0803 9.5625 9.5625C9.5625 9.04473 9.14277 8.625 8.625 8.625C8.10723 8.625 7.6875 9.04473 7.6875 9.5625C7.6875 10.0803 8.10723 10.5 8.625 10.5Z" stroke="white" stroke-linecap="round" stroke-linejoin="round"/>
<path d="M2.92969 6.75H8.81719C8.99248 6.75053 9.16236 6.68926 9.29696 6.57696C9.43155 6.46465 9.52226 6.30849 9.55313 6.13594L10.125 3H2.25" stroke="white" stroke-linecap="round" stroke-linejoin="round"/>
</svg>
